<?xml version="1.0" encoding="utf-8"?>
<!-- Generator: Adobe Illustrator 17.1.0, SVG Export Plug-In . SVG Version: 6.00 Build 0)  -->
<!DOCTYPE svg PUBLIC "-//W3C//DTD SVG 1.1//EN" "http://www.w3.org/Graphics/SVG/1.1/DTD/svg11.dtd">
<svg version="1.1" id="Layer_1" xmlns="http://www.w3.org/2000/svg" xmlns:xlink="http://www.w3.org/1999/xlink" x="0px" y="0px"
	 viewBox="0 0 500 500" enable-background="new 0 0 500 500" xml:space="preserve">
<g>
	<path d="M212.9,205.6c-2,0-3,1.1-3.3,0.3c-0.6-1.8,1.1-3.6,2-3.8c10.9-2.6,14.4-13.1,20.7-20.1c10.6-11.7,20.7-23.8,32.8-34.1
		c5.9-5,10.8-11.2,17.5-15.4c8.3-5.2,16.7-9.4,26.9-9.9c6.1-0.2,12-1.4,18.2-0.1c4.3,0.9,4.1,3.5,3.2,6.2c-1.2,3.3-3.8,5.8-7.1,7.1
		c-2.1,0.9-3.3,0-2.7-2.4c0.5-2,2.7-4.9,1.2-5.7c-2.8-1.5-6.5-0.9-9.8-0.2c-1.4,0.3-2.6,1.3-3.9,2.1c1.7,1.4,4-0.2,5.9,1.6
		c-5.5,6.7-11.1,13.4-16.6,20.1c-11.1,13.4-22.2,26.8-33.4,40.1c-5.8,7-11.7,14-17.7,20.9c-1.6,1.8-3.3,3.4-1.3,5.9
		c0.9,1.1,1.5,2.2-0.5,3.1c-1.7,0.8-3.3,1.5-4.4-0.3c-2.6-4.7-7.2-7.2-10.9-10.7c-5-4.8-8.5-4.3-13,0.8
		c-9.6,11.2-19.5,22.2-31.2,31.1c-7.2,5.5-16.1,6-24.9,4.1c-1-0.2-3,0.8-2.9-1.4c0.1-2.3,2-2.2,3.7-2.2c5.3-0.1,10.5,0.5,15.6-1.8
		c7.3-3.3,13.2-7.5,18.4-14.1C200.6,219.8,204.9,211.8,212.9,205.6z M237.6,186.7c-4,4.5-8,9.1-12,13.6c-0.8,0.9-1.9,1.9-1,3
		c0.7,1,2.6,0.9,3.2,0.3C232.1,198.6,236.7,193.6,237.6,186.7c5.6-1.4,6.5-6.7,8.7-11.1C243.4,179.3,240.5,183,237.6,186.7z"/>
	<path d="M265.7,337.4c0.2,2.4-1,5.1,2.7,5.6c1.1,0.2,1.8,1.3,1.8,2.7c0,10.1,1,20.3-1.4,30.2c-3.6,14.9-13.4,23.8-28.4,27.4
		c-14.6,3.6-34.1-3.4-43.4-16.8c-1.6-2.3-3.8-4-5.3-6.5c-3.5-5.8-4.9-11.8-3.4-19.1c1.1,2.1,2.1,3.6,2.7,5.3
		c4.3,13.6,14.6,21.6,26.7,27c5,2.2,12,1.9,16.9-2.9c6.8-6.6,10.7-14.5,10.8-24.3c0.2-16-2.6-31.2-11-45.5c1.9-0.2,3.7-0.3,6.1-0.5
		c-7.7-12.5-16.4-24-30.6-27.3c-14.2-3.2-28.2,3.6-31.8,20.9c-1.3,6.4-3.7,12.7-2.8,19.4c0.6,4.1,1,8.2,0.9,12.3
		c0,1.6-0.2,3.5-2,3.5c-2.4,0.1-1.4-2.2-1.5-3.4c-0.8-7-2.1-14.1-2-21.1c0.3-20.2,5.7-33.7,26.9-41c5.7-1.9,11.3,0.3,16.4,1.8
		c5.8,1.7,11.4,4.7,16.2,9.1c10.9,9.8,18.4,22.4,28.2,33.1c4.7,5.2,11.1,7.2,17.9,8.4c1.3,0.2,3.3-0.8,3.7,1.4
		c0.2,1.4,0.4,3.2-0.3,4.3c-1,1.7-2.7,0.2-4-0.3C272.6,340.1,269.4,338.8,265.7,337.4z"/>
	<path d="M151.3,328.8c-1.1,6.4,1.2,13.3,0.9,20.2c-0.1,1.4,0.4,3.6-2,3c-1.6-0.4-4.4,0.1-4.4-2.9c-0.4-18.2-4.1-36.7,2.3-54.3
		c4.4-12.1,10.7-23.2,22.5-30.9c10.7-7,21.3-13.2,34-15.6c8.7-1.6,17.3-2.4,26.3-2c13.1,0.7,25.8,1.9,38.2,6.3
		c0.2,0.1,0.3,0,0.5,0.1c2.7,0.9,6.2,2.2,5.8,5c-0.4,3.1-4.2,2.6-6.8,2.4c-10.3-0.9-20.6-2.3-30.9-2.7c-10.1-0.4-20.2-1.1-30.2,1
		c-5,1.1-9.9,2-15,2.7c-2.9,0.4-4.5,2.5-6.8,3.7c-18,9.7-27.2,25.7-32.6,44.7C151.4,315.8,151,321.9,151.3,328.8z"/>
	<path d="M280.4,324.7c-11.2-0.6-20-6.2-26-15.1c-5.9-8.7-10-18.6-11.9-29.2c-1-5.6,0-6.9,5.6-6.1c2,0.3,3.9,0.5,5.9,1
		c4.1,1,7,3,6.7,7.8c-0.3,3.5,0.4,6.8,1.9,10.1c1.5,3.5,4.2,5.5,7.4,5.8c6.9,0.5,14.1,1.2,20.5-2.2c2.4-1.3,2.7-0.3,4,1.3
		c3.5,4.7,4,10.1,4.1,15.6c0.2,4.9-7.2,10.3-14.2,10.9C283.1,324.8,281.8,324.7,280.4,324.7z"/>
	<path d="M341,357.3c-9-0.1-16.2-4.1-21.8-10.7c-2-2.3-3.1-2.6-5.7-1.6c-5.9,2.4-12.3,2.9-18.5,2.1c-9.5-1.2-10.7-4.3-10.2-14.6
		c0.1-1.3-0.8-3.8,1.4-3.5c1.9,0.3,4.7,0.7,5.1,3.8c0.7,5.3,3.3,7.7,8.7,7.9c7,0.2,13.7-1.6,20.1-4.2c18.4-7.4,36.8-14.9,54.5-23.8
		c5.6-2.8,11-5.9,16.5-8.7c3.2-1.6,4.5-3.3,2.9-7.1c-0.7-1.7-3.1-4.8-0.1-6c3.7-1.4,7.2,0.9,9.5,3.8c1.9,2.4,1.1,5.1-1.5,6.9
		c-4.1,2.7-8.3,5.3-12.5,7.8c-2.6,1.5-5.2,2.9-7.9,3.9c-5.6,2.1-9.5,5.3-9.1,11.8c0.4,6.4-3.3,11.3-6.1,16.4
		C361.2,351.2,351,357.2,341,357.3z M324.6,342c8.8,7.7,18.4,8.5,27.7,4.5c11-4.8,15.7-14.1,16.2-26.3
		C353.7,327.5,339.1,334.7,324.6,342z"/>
	<path d="M155.3,218.9c5-6.5,10.6-12.4,17-17.3c3.6-2.7,3.3-4.4,1.2-7.2c-1-1.3-4.1-2.6-1-4.5c2.8-1.8,3,1.3,4,2.6
		c1.5,1.9,2.2,2.8,4.7,0.2c14.4-15.1,31.1-27.7,45.9-42.4c8.7-8.6,19.3-15.4,28.2-23.9c8.5-8.1,18.3-14.6,27.3-21.9
		c14.9-12,34.1-7.6,44.2,7.5c-2.4,0.5-3.9-0.4-5.4-2.3c-5-6.3-11.7-9.2-19.8-9.4c-6-0.2-10.2,3.4-14.5,6.6
		c-14.4,10.8-27.8,22.7-41.2,34.7c-11.4,10.3-22.5,21-33.9,31.3c-13.5,12.2-26.9,24.5-39.5,37.6
		C167.7,215.4,161.5,216.9,155.3,218.9z"/>
	<path d="M195.1,395.1c-13.2,0.4-24.6-0.6-36.1-1.8c-6.2-0.6-12.6-0.6-18.8-0.9c-9.1-0.4-18.2-1.2-27.3-1.5
		c-6.1-0.2-12.2-0.7-18.3-0.8c-1.9,0-6.3-7.1-5.5-8.6c0.5-0.9,1.4-0.8,2.2-0.8c10.1-0.2,20.2,0.7,30.2,1.7c6.4,0.6,12.9,0.6,19.3,1
		c8.6,0.5,17.2,1.3,25.8,1.5c6.1,0.2,12.2,0.5,18.3,0.9C189.9,386.2,190.7,391.5,195.1,395.1z"/>
	<path d="M229.9,358.7c0.3-13-3.4-22.9-11.6-30.5c-6.3-5.9-13-7.4-18.5-1.2c-1,1.1-1.9,1.6-3.4,0.3c-1.4-1.2-1.4-2.3-0.6-3.8
		c3.4-6.3,7.9-7.8,14.5-4.7c17.8,8.4,27.3,22.6,28.7,42c0.6,7.6-3.7,13.6-9.5,18.1c-9.1,7-16,6.2-23.9-2.5c-2.7-3-5.7-6-6.8-10.1
		c-0.2-0.7-1.5-1.8,0-2.4c1-0.4,2-0.1,2.6,0.9c1.3,1.7,2.9,3.3,3.7,5.2c1.9,4.7,5.9,6.5,10,8.2c3.6,1.6,10.1-1.8,11.6-6
		C228.5,367.3,230.8,362.4,229.9,358.7z"/>
	<path d="M320.1,248c-3.7,2.1-7.8,2.2-11.9,2.3c-19.2,0.7-38.1-2.3-57.1-5.1c-1.7-0.3-2.3-0.8-2.3-2.5c0-2,1.4-2.1,2.7-2
		c6.2,0.8,12.3,1.9,18.6,2.4c12,1,24.1,2.3,36.2,1.4c3.8-0.3,7.3-2.8,10.5-5.2c0.6-0.4,2.1-1,0.4-2.1c-0.6-0.4-2.5,0.4-1.7-1.4
		c0.7-1.5,2.3-1.4,3.5-1c5.3,1.5,10.6,3.5,16,4.7c7.5,1.7,11,8.1,15.9,12.8c1.3,1.3,1.2,2.8-1.6,2.9c-4.3,0.1-7.9-0.2-11.1-4
		c-3.8-4.5-7.9-8.9-13.7-10.5c1,3.8-3.3,4.6-4.7,7.2L320.1,248z"/>
	<path d="M122.9,339.2c-14.6,0.4-29.2,1.5-43.8,1c-3.3-0.1-6.4-5.1-4.8-7.8c0.6-0.9,1.8-0.6,2.7-0.6c19.6,0,39.3,0.1,58.9-0.1
		c3.3,0,3.2,1.8,3.3,4.1c0.1,2.6-0.8,3.6-3.4,3.5C131.5,339.1,127.2,339.2,122.9,339.2z"/>
	<path d="M106.9,359.2c-8.8,0-17.7-0.1-26.5,0.1c-2.8,0-3.8-0.9-3.7-3.7c0-2.6,0.5-3.8,3.5-3.9c17.4-0.2,34.8-0.6,52.3-1
		c3-0.1,4.8,0.1,4.9,4.1c0.1,4.1-1.7,4.5-5,4.5C123.9,359.1,115.4,359.2,106.9,359.2z"/>
	<path d="M144.5,222.6c-3.6,1.1-6.5,0.9-8.6-1.1c-6.8-6.4-13.4-13.1-17.2-21.9c-2.6-5.9-0.9-9.6,5.3-11.9c8.3-3.1,16.7-4,25.6-4.2
		c11.2-0.2,22.5-0.9,33.8-0.8c1.8,0,3.7-0.4,5.4,0.5c-0.7,2.6-2.8,1.9-4.5,1.9c-7.6,0.1-15.3,0-23,0c-8.6,0-17.1,0.8-25.4,3
		c-1.7,0.5-3.4,1.2-5,2.1c-4,2.4-4.9,6.5-2.7,10.6C132.6,208.7,137,216.5,144.5,222.6z"/>
	<path d="M93.6,233.2c-0.8,0-1.7,0.2-2.5,0c-1.7-0.5-4.8,1.3-4.9-1.5c-0.2-3.3,3-1.4,4.7-1.7c3.7-0.5,7.6,0.1,11.3-0.9
		c7.4-2.1,10.7-7.4,8.3-14.5c-4.1-12.2-20.3-20.5-31.6-16.4c-0.9,0.3-1.8,0.7-2.8,0.9c-1.4,0.3-2.1-0.4-2.6-1.7
		c-0.9-2.2,1-1.5,1.8-1.8c12-4.7,26.8-1.1,34.2,9.8c3.5,5.1,8.4,9.2,10.6,15.2c1.7,4.5-0.2,8.2-4.8,9.3c-5.2,1.3-10.5,2.3-15.9,3.1
		C97.6,233.5,95.6,233.2,93.6,233.2C93.6,233.2,93.6,233.2,93.6,233.2z"/>
	<path d="M300.3,327.1c9-3.7,18-7.5,27-11.1c19.6-7.8,39.2-15.6,58.8-23.3c1.4-0.6,3-2.2,4,0.4c0.7,1.9-0.4,3.1-2.2,3.8
		c-25.9,10.1-51.7,20.2-77.5,30.4C307.1,328.6,303.9,328,300.3,327.1z"/>
	<path d="M66.5,250.1c11.6-1.1,23.4-2.2,35.1-3.4c9.1-0.9,18.3-2,27.4-3c1.1-0.1,2.3-0.1,3.5,0.1c2.1,0.3,2.5,2.1,2.6,3.7
		c0.1,2.1-1.7,1.6-2.9,1.7c-17.7,1.7-35.3,3.3-53,5.1c-2.4,0.2-4.8,0.9-7.3,1C68,255.6,65.9,254.5,66.5,250.1z"/>
	<path d="M188.1,178.9c-6,1-11-1.6-16.2-1.8c-13.1-0.7-26.2-2.8-39.4-1c-9.8,1.3-19.7,1.4-29.6,2.2c-4.7,0.4-9.4,1.4-14.1,1.9
		c-1.4,0.1-3.8,1-3.9-1.6c0-2.7,2.4-1.5,3.8-1.7c8.3-1.2,16.6-2,24.8-3.5c4.7-0.9,9.5-0.5,14.2-1.3c17.6-2.8,35.1-0.8,52.4,3
		C182.8,175.5,185.6,176.3,188.1,178.9z"/>
	<path d="M249.2,221.4c-0.6-0.5-1.2-0.8-1.6-1.2c-0.9-0.9,0-1.5,0.5-2c6.4-7.4,12.8-14.7,19.1-22.1c9.1-10.7,18.1-21.4,27.2-32.1
		c6.8-7.9,13.6-15.7,20.5-23.5c0.9-1,1.7-3.6,3.8-1.6c1.8,1.8,0.1,3.2-1.1,4.6c-11.8,13.4-23.5,26.8-35.2,40.3
		c-10,11.6-20,23.3-30,34.9C251.4,219.6,250.3,220.4,249.2,221.4z"/>
	<path d="M300.7,276.2c-1.9,0.2-2.2-1.4-1.8-2.9c0.3-1.2-2.2-2.9,1.1-3.7c17-4.1,33.9-8.5,50.8-12.8c2.1-0.5,3.4,0.3,4.2,2.4
		c0.8,2.3-0.4,2.8-2.3,3.3c-16.9,4.5-33.7,9.1-50.6,13.6C301.7,276.2,301.4,276.2,300.7,276.2z"/>
	<path d="M385.2,277.4c0,1.7-0.2,3.3,0,5c0.5,3.2-1.3,4.5-4,5.2c-0.3,0.1-0.7,0.1-1,0.2c-9.3,3-9.3,3-10.1-6.8
		c-0.2-2.9-0.7-5.9-1-8.8c-0.2-2.9,0.5-4.6,4-3.3c2.7,1,5.6,0.8,8.1-0.4c3.7-1.8,3.9,0.2,3.8,2.9
		C385.2,273.5,385.2,275.4,385.2,277.4z"/>
	<path d="M211.9,366.2c7.5-0.6,7.3-1.2,8.1-8.3c1-9.2-4.2-15.2-9.3-21.4c-3-3.6-7.4-4.6-12.3-2.3c1.9-4.6,5.1-6.2,9.3-5.1
		c10.8,3,15.9,11.9,17.2,22.6c0.4,3.4,0.2,7,0,10.5c-0.2,4-3.2,6.1-6.3,7.5C215.9,371.2,214,368.9,211.9,366.2z"/>
	<path d="M200.2,235.6c4.8-6,8.6-9.4,15.7-9.1c9,0.4,18-1,27-1.8c3.5-0.3,4.8,1,4.4,4.5c-0.3,2.3,0,4.6-0.1,7c0,1.1-0.3,2-1.6,2
		c-1.3,0-1.5-0.8-1.8-1.8c-2.4-6.8-2.4-6.5-9.2-5.4C223.6,232.7,212.5,233.9,200.2,235.6z"/>
	<path d="M307.2,310.1c0,1.6,0,2.6,0,3.6c0,1.9,0.1,3.6-2.7,3.6c-2.8,0-2.9-1.6-2.8-3.5c0.4-7-1.4-13.6-2.8-20.4
		c-2-9.3-7.1-16.8-13.2-23.7c-1.4-1.6-4.6-3.5-3-5.3c1.7-1.9,4.4,0.5,6.4,2c10.2,8,13,19.7,16,31.3
		C306.3,301.9,308,306.1,307.2,310.1z"/>
	<path d="M353.8,282.5c0-4.5,0-9,0-13.5c0-1.1-0.5-2.5,1-3c1.2-0.4,1.7,0.8,2.5,1.4c3.6,2.9,4.6,7.2,4.9,11.4
		c0.4,5.6-0.1,11.3,0.2,17c0.2,3.7-2,3.4-4.4,3.5c-2.8,0.1-4.4-0.4-4.2-3.8C354,291.2,353.8,286.9,353.8,282.5z"/>
	<path d="M287,227.7c13.9,0.8,27.2-0.2,40.7,0.7c9.5,0.7,18.6,1.6,27.2,5.5c1.9,0.8,5.7,1.1,4.8,3.7c-1.2,3.5-4,0.6-6.2,0
		c-13-3.3-25.8-7.6-39.5-7.4c-7.3,0.1-14.6,0.1-22,0C290.4,230.2,288.3,231,287,227.7z"/>
	<path d="M80.2,237.8c6.1-0.1,13.6,0.3,21-0.9c1.5-0.2,4.3-1.2,4.6,1.2c0.3,2.5-2.4,1.9-4.1,2.3c-12.3,3.1-24.8,3-37.4,2.9
		c-2,0-4.6,0.4-4.8-2.4c-0.3-3.5,2.6-3,4.9-3C69.2,237.8,74.1,237.8,80.2,237.8z"/>
	<path d="M286.5,285.2c2.8,3.7,0.4,9.5-4.5,11c-6.1,1.9-13.9-1.5-15.9-7.6c-2.1-6.1-2.7-12.4,0.6-18.4c2.1-3.9,11.4-4.6,14-0.9
		c0.5,0.7,0.4,1.2,0,1.8c-0.7,1.1-2,1.7-3,1.1c-3.6-2.2-6.9-2.7-9.2,1.5c-2.3,4.3,0.1,12.7,4.1,15.4
		C280,293.8,284,292.8,286.5,285.2z"/>
	<path d="M188.1,311.6c0,16.2,0,31.5,0,47C181.3,351.3,181,322,188.1,311.6z"/>
	<path d="M304.3,281.3c8.5-2,17-4.1,25.6-6.1c1.7-0.4,3.8-1.6,4.2,1.4c0.3,2.2,0.1,4.1-2.9,4.7c-7.5,1.5-14.9,3.2-22.4,4.9
		C304.5,287.1,304.6,284,304.3,281.3z"/>
	<path d="M149.2,365c1.3-4.2,3.7-5.8,7.6-5.2c5.7,0.8,10.9,0.1,14.1-5.8c4.4,7.7,1.3,13.2-7,13.4C158.9,367.4,154.3,365.4,149.2,365
		z"/>
	<path d="M147.8,228.5c0.2,1.6,0.6,2.5,0.3,3.1c-4.3,9.8-1,19.1,1.9,28.5c0.4,1.3,2,2.8,0,3.8c-2,1-2.8-0.9-3.6-2.4
		c-3.6-6.4-5.2-13.6-5.8-20.5C140.4,236.8,144.8,233,147.8,228.5z"/>
	<path d="M320,248.1c5.6-0.5,8.5,3.6,11.8,7c0.7,0.7,0.8,2.1-0.1,2.7c-1.3,0.9-2.8,0.8-4.1-0.4c-1.2-1.1-1.5-4.1-3.9-2.8
		c-2,1.1-4.3,2.6-4.5,5.5c-0.2,3.5-2.8,3.6-5,2.9c-2.4-0.7-1-2.7-0.8-4.5c0.5-4.7,3.9-7.4,6.7-10.6C320.1,248,320,248.1,320,248.1z"
		/>
	<path d="M256.3,234.2c16.1-3.2,32.2,0.7,48.4-0.5c-0.6,2.5-1.7,3.5-3.6,3.6c-10.1,0.5-20.2-0.6-30.2-1.6
		C266.1,235.2,261.2,236,256.3,234.2z"/>
	<path d="M306.3,293.3c6.9-1.7,13.7-3.4,20.5-5c1.7-0.4,3.8-1.6,4.3,1.2c0.3,2,1.1,4.5-2.8,4.9c-5.2,0.4-10.3,1.9-15.4,2.8
		C309.7,297.6,306.7,297.6,306.3,293.3z"/>
	<path d="M366.5,246.2c1.3,5,3.9,9,7.2,12.8c2,2.2,3.4,2.9,5.1,0.1c0.6-1.1,1.3-1.3,2.4-1.1c1.1,0.2,1.1,1.2,1.1,1.9
		c-0.2,2,1,4.6-1.4,5.9c-2,1.1-4.3,0.6-6.1-0.7c-4.4-3.5-8.6-7.3-10.9-12.6C362.5,249.8,365.7,248.5,366.5,246.2z"/>
	<path d="M318.3,306.2c-2.3,0-4.7,0-7,0c-1.5,0-2.5-0.3-2.5-2.2c0-1.8,0.9-2,2.5-2.3c4.5-0.8,8.9-2,13.4-2.7
		c1.7-0.3,4.3-1.4,4.5,1.9c0.2,2.9,0.1,5.5-3.9,5.3C323,306.1,320.6,306.2,318.3,306.2z"/>
	<path d="M337.7,280c0-3.4-0.1-5.6,0-7.7c0-0.8-1.4-1.8,0.3-2.4c1.3-0.4,2.3,0.3,2.9,1.4c0.3,0.5,0.3,1.3,0.3,1.9
		c0.4,9.1,0.7,18.1,1,27.2c0,1.4,0.9,3.8-1.9,3.6c-2.3-0.2-1.6-2.3-1.5-3.5C339.5,293.2,337.3,286,337.7,280z"/>
	<path d="M208.7,305.2c-3.8,0-7.6,0.2-11.3,0c-4.4-0.3-5.8,3.7-8.7,5.5c-2.4-6.3-1.8-7.1,4.6-9c5.5-1.6,10.8-3.9,15.1,2
		C208.5,303.9,208.5,304.3,208.7,305.2z"/>
	<path d="M202.3,339.4c4.3-2.7,12.4,1.6,12.8,6.8c0.3,4.1,0.1,8.3,0,12.4c0,1.1,0.1,2.5-1.7,2.3c-2-0.2-1-1.3-0.8-2.4
		C214.7,350.3,209.7,341.8,202.3,339.4z"/>
	<path d="M318,315.2c-2,0-4,0-6,0c-1.4,0-2.2-0.5-2.2-2c0-1.3,0.2-2.5,1.8-2.4c4.2,0.5,8.2-1.3,12.3-1.1c1.4,0.1,3.2-0.4,3.3,1.9
		c0.1,2.2-0.9,3.5-3.2,3.5C322,315.2,320,315.2,318,315.2z"/>
	<path d="M135.2,192.6c9.5-5.4,19.7-5.1,29.9-4.8c1,0,2.7-0.4,2.7,1.2c0,1.6-1.7,1.3-2.7,1.2c-9.1-0.7-18.1,0.3-26.6,3.7
		C137.1,194.5,135.9,194.2,135.2,192.6z"/>
	<path d="M270.9,107.7c5.8-4.5,11.3-8.8,16.8-13.1c1.4-1.1,2.8-0.7,4.3-0.7c0.8,0,1.1,0.6,1.2,1.3c0.1,0.9,0,1.9-1.1,1.9
		c-6.2,0-8.4,5.8-12.6,8.7C276.7,107.5,274.5,108.9,270.9,107.7z"/>
	<path d="M257.4,239.8c1-1.6,2.4-2.2,4.1-2c8,0.7,16,1.4,24,2c0.7,0.1,1.4,0.2,1.5,1c0.1,1.5-1.2,1.4-2.1,1.4
		c-5.7-0.3-11.6-0.2-17.1-1.3C264.2,240.2,260.8,241,257.4,239.8z"/>
	<path d="M378,254.9c-0.1,0.9-0.6,1.3-1.3,1.3c-1.6,0.1-3.4,0.5-4.4-1.3c-1.7-2.8-2.9-5.8-3.4-9c-0.1-0.7-0.1-1.8,1.1-1.8
		c0.5,0,1.5,0.6,1.5,0.9c0,4.3,3.6,6.1,5.9,8.8C377.6,254.1,377.8,254.5,378,254.9z"/>
	<path d="M301.8,258.2c0-0.3,0-1.3-0.2-2.3c-0.2-1-0.7-2,0.9-2c1.1,0,2.4-0.3,2.6,1.4c0.3,1.9,0.7,3.8,1.1,5.7
		c0.4,2.2-0.7,3.7-2.7,3.9c-2.9,0.2-1.4-2.3-1.7-3.6C301.6,260.5,301.8,259.6,301.8,258.2z"/>
	<path d="M273,279.4c-0.6,4.9,2.5,5.2,4.7,6.4c1.2,0.7,2.7,1.2,2.1,2.7c-0.6,1.4-2.5,1-3.6,0.6C272.5,287.5,270.2,285.1,273,279.4z"
		/>
	<path d="M375.2,242.3c7,2.9,9.5,8.4,6.1,12.7C379.8,250.4,378.4,245.9,375.2,242.3z"/>
	<path d="M267.5,224.8c2,0,4.1,0.5,3.6,2.8c-0.6,2.9-4.2,0-5.7,2.3c-0.5,0.8-1.4-0.6-1.5-1.7C263.7,225.7,265.1,224.7,267.5,224.8z"
		/>
	<path d="M277.3,230.9c1.8-2.7,2.8-7.2,7.5-3.8c0.8,0.6,1.7,1.5,1.1,2.5c-0.3,0.5-1.6,0.9-2.2,0.6
		C281.4,229,279.5,230.2,277.3,230.9z"/>
</g>
</svg>
