<?xml version="1.0" encoding="utf-8"?>
<!DOCTYPE svg PUBLIC "-//W3C//DTD SVG 1.1//EN" "http://www.w3.org/Graphics/SVG/1.1/DTD/svg11.dtd">
<svg version="1.1" id="Layer_1" xmlns="http://www.w3.org/2000/svg" xmlns:xlink="http://www.w3.org/1999/xlink" x="0px" y="0px"
	 viewBox="0 0 500 500" enable-background="new 0 0 500 500" xml:space="preserve">
<g fill="hsla(0, 0%, 0%, .1)">
	<path d="M55.4,209.8c6.5,0,12.1-1.7,16.9-5.1c4.9-2.9,8.8-7.2,11.7-13c6.2-11.7,9.3-25.7,9.3-42V78.1c0.3-17.5,5.2-31.1,14.6-40.8 c9-9.6,19.9-14.3,32.8-14.3h41.1v32.7h-23.7c-7.7,0.3-13.3,4.5-16.6,12.5c-3.2,8.3-4.7,18-4.7,29.1v64.5c0,11.1-1.5,20.3-4.6,27.6 c-2.9,8-6.8,14.5-11.5,19.5c-9.6,9.9-17.3,15.6-22.9,16.9v1c2.6,0.5,6.1,1.9,10.5,4.2c4.4,2.6,8.5,6.4,12.5,11.5 c4.7,5.1,8.5,11.6,11.5,19.5c3.1,8,4.6,17.8,4.6,29.6v64c0,10.6,1.6,19.9,4.7,27.9c3.3,8.8,8.9,13.4,16.6,13.7h23.7v32.7h-41.1 c-12.9-0.3-23.8-5.4-32.8-15.1c-9.4-9.6-14.3-23-14.6-40.2v-70.5c0-17.4-3.1-31.7-9.3-42.9c-6.3-11.7-15.9-17.7-28.5-18.1V209.8z" />
	<path d="M307.5,396.9h23.7c7.8-0.3,13.3-4.9,16.4-13.7c3.3-8,4.9-17.3,4.9-27.9v-64.5c0-11.1,1.7-20.6,5.2-28.6 c3-8,6.7-14.5,11.1-19.5c9.4-9.9,16.5-15.3,21.3-16.1v-1c-1.9-1-4.8-2.6-8.7-4.9c-3.8-2.3-8-5.9-12.5-11c-4.4-5-8.1-11.6-11.1-19.5 c-3.5-8-5.2-17.7-5.2-29.1v-64c0-11.1-1.6-20.8-4.9-29.1c-3.1-8-8.6-12.1-16.5-12.5h-23.5V22.9h41c13.5,0,24.8,4.8,34,14.4 c8.6,9.8,13.1,23.4,13.4,41v70.5c0,16.9,3.4,31.1,10.2,42.5c6.5,11.4,15.7,17.6,27.7,18.5l1.2,32.9c-12.4,0.3-21.9,6.2-28.6,17.6 c-7,11.2-10.5,25.4-10.5,42.5v71.5c-0.3,17.2-4.8,30.7-13.4,40.3c-9.1,9.8-20.4,14.8-33.9,15.1h-41.2V396.9z"/>
</g>
</svg>
