<?xml version="1.0" encoding="utf-8"?>
<!-- Generator: Adobe Illustrator 17.1.0, SVG Export Plug-In . SVG Version: 6.00 Build 0)  -->
<!DOCTYPE svg PUBLIC "-//W3C//DTD SVG 1.1//EN" "http://www.w3.org/Graphics/SVG/1.1/DTD/svg11.dtd">
<svg version="1.1" fill="hsla(0, 0%, 0%, .1)" id="Layer_1" xmlns="http://www.w3.org/2000/svg" xmlns:xlink="http://www.w3.org/1999/xlink" x="0px" y="0px"
	 viewBox="0 0 500 500" enable-background="new 0 0 500 500" xml:space="preserve">
<g>
	<path d="M105,320.2c16.1,0.1,26,8.3,33.2,20.3c3.8,6.5,2,12.1-4.4,16.3c-9,6-18.9,6.1-28.8,3.5c-18.4-4.8-35.6-2.5-51.9,7.1
		c-3,1.7-6.3,3-9.6,4.1c-6.4,2.2-12.4,1.6-18-2.5c-7-5.2-7.9-11.6-1.7-17.7c3.6-3.6,7.8-7,12.3-9.2c20.8-9.8,42.2-18,65-21.7
		C102.8,320.2,104.4,320.2,105,320.2z"/>
	<path d="M191,410c-8.6-0.8-19.7-1.8-30.7-3c-2.2-0.2-4.5-1.2-6.6-2.2c-3.7-1.8-6.9-4.2-6.7-9c0.2-4.4,3.9-9,8.7-9.6
		c6.4-0.8,12.9-1.3,19.3-1c16.4,0.8,31.7-1.9,45.1-12.2c7.7-5.9,16.7-7.9,26.4-6.3c6.7,1.1,12.7,3.5,14,10.7
		c1.5,8.1,0.8,16.5-7,21.4c-4.8,3-10.5,5.2-16.1,6.1C223,407,208.2,408.2,191,410z"/>
	<path d="M310.5,282.9c11.6,0.3,21.8,2.7,31.3,7.3c2,1,4.6,3.4,4.6,5.1c0,1.7-2.8,4.4-4.8,4.9c-6.9,1.7-13.9,2.9-20.9,3.7
		c-10,1.2-20.3,1.3-30.1,3.2c-6.2,1.2-12.1,4.5-17.9,7.4c-9.1,4.5-18.3,4.7-27.6,1.3c-5.7-2.1-6.3-5.6-1.7-9.6
		c2-1.7,4.2-3.3,6.6-4.4c17.3-7.8,34.8-15.1,53.6-18.2C306.2,283.2,308.8,283.1,310.5,282.9z"/>
	<path d="M385.9,310.2c4.1-1.4,8.3-2.8,12.4-4.2c6.1-2.1,12.5-3.7,18.2-6.4c2.5-1.2,4.6-4.6,5.6-7.4c1.2-3.7,2.9-6.2,6.5-7.5
		c14.9-5.3,29.1-3.2,42.6,4.7c4.1,2.4,4,5.3,0.2,8.2c-0.9,0.7-2,1.3-3,1.7c-20,8.7-40.2,16.8-62.3,18.2c-4.9,0.3-9.9-0.7-14.7-1.7
		c-2-0.4-3.8-2.2-5.6-3.4C385.8,311.7,385.8,311,385.9,310.2z"/>
	<path d="M398.1,227c4.2,1.4,8.3,2.7,12.5,4.1c0,0.5,0.1,0.9,0.1,1.4c-2,1.2-4,2.3-7.4,4.2c5.5,2.7,10.1,4.9,14.8,7.3
		c-9.7,5.6-43.6-3.6-54.4-15.6c1.2-0.8,2.4-1.5,3.7-2.3c-1-0.7-1.9-1.4-3.5-2.5c1.5-0.2,2.3-0.5,2.7-0.3c9.3,5.6,19.9,1.6,29.6,3.9
		c0.6,0.1,1.3,0,2,0C398.2,227.1,398.1,227,398.1,227z"/>
	<path d="M439.4,214.5c5.5-0.2,11.1-0.5,16.6-0.6c4.3-0.1,8.9-1,12.8,0.2c4.1,1.3,8,4.2,11.3,7.1c2.2,2,3.2,5.4,4.8,8.2
		c-3.1,0.9-6.1,2.2-9.2,2.5c-3.1,0.3-6.3-0.4-9.4-1c-1.5-0.3-3.8-1.2-4.1-2.3c-1.5-5.7-6.5-6.1-10.8-7.5c-4.1-1.4-8.2-2.6-12.4-3.9
		C439.1,216.2,439.2,215.4,439.4,214.5z"/>
	<path d="M164.8,342c4.1,1,7.5,1.4,10.4,2.7c4,1.8,4.4,5.2,1.6,8.5c-5.9,7-20.9,7.2-27,0.4c-2.6-2.9-2.3-5.8,1-7.3
		C155.5,344.4,160.5,343.3,164.8,342z"/>
	<path d="M269.8,370.2c-3-1.8-7.4-3.1-7.6-4.8c-0.2-2.6,1.8-6.4,4.1-8.1c6.3-4.5,13.4-4.3,20.3-1.2c3.8,1.7,4,5.7,0.2,7.7
		C281.6,366.5,275.8,368,269.8,370.2z"/>
	<path d="M349.9,164.4c1.8-0.7,3.6-1.4,5.4-2c0-0.2-0.1-0.4-0.1-0.7c-2.6,0.7-6.1,0.5-7.6,2.2c-3.7,3.9-5.9,0.8-9.4-0.4
		c12.1-5.1,38.4,1.6,45.9,12.6c-2.6-0.2-5.4-0.1-7.9-0.8c-6.8-1.9-13.5-4.1-20.3-6.3c-2.2-0.7-4.3-1.8-6.4-2.7
		C349.7,165.7,349.8,165,349.9,164.4z"/>
	<path d="M393.8,200.9c-3,0-6.2,0.7-9-0.1c-8.3-2.3-16.4-5-24.6-7.9c-1.5-0.5-2.5-2.5-3.7-3.9c1.6-1,3.3-3,4.8-2.8
		c3.8,0.4,7.7,1.4,11.3,2.9c5.4,2.2,10.6,5.1,15.9,7.7c1.8,0.9,3.8,1.5,5.6,2.3C394,199.7,393.9,200.3,393.8,200.9z"/>
	<path d="M353.5,292.4c3.5-1.3,6.4-3,9.4-3.3c5.4-0.6,10.9-0.8,16.3-0.5c2.5,0.1,4.6,1.9,1.8,4.7
		C376.2,298.2,359.8,298.1,353.5,292.4z"/>
	<path d="M272.9,168.5c2.5-4.3,6.7-3.9,10.4-3.3c8.3,1.4,16.4,3.4,24.6,5.2c0.6,0.1,1.1,0.7,1.7,1
		C304.8,175.3,278.6,173.3,272.9,168.5z"/>
	<path d="M456.3,269.1c2.1,1.1,4.7,2.4,7.3,3.7c-2.4,1.8-4.5,4.5-7.2,5.2c-3.7,1-7.8,0.7-11.7,0.3c-1.2-0.1-3-2-3.1-3.2
		c-0.1-1,1.7-2.8,3-3.2C448,270.8,451.6,270.2,456.3,269.1z"/>
	<path d="M265.7,144.2c7.9,1.9,15.7,3.8,23.5,5.8c2.3,0.6,4.3,2,6.2,4c-11.1,0.5-21.3-4.2-33.2-3.6
		C264.1,147.2,264.9,145.7,265.7,144.2C265.7,144.2,265.7,144.2,265.7,144.2z"/>
	<path d="M183.5,133c12.8-4.3,23.3-0.2,34.2,5.5c-2.8,2-20.4-0.9-25.8-3.8c0.5-0.9,1-1.7,1.6-2.7C190.2,131.9,187.7,137.5,183.5,133
		z"/>
	<path d="M154.5,341.2c-2.3-0.5-3.9-0.5-5.1-1.2c-1-0.5-2.1-1.7-2.3-2.7c-0.2-0.7,1-2.4,1.7-2.6c5.3-0.9,10.6-1.7,15.9-2.1
		c0.8-0.1,2.3,1.4,2.6,2.4c0.2,0.6-1,2.2-1.8,2.5C161.7,339,157.8,340.2,154.5,341.2z"/>
	<path d="M194.7,151.4c3.1-5.5,7.2-4.3,10.9-3.3c5.7,1.5,11.3,3.4,17,5.2c0.7,0.2,1.2,0.9,1.7,2C214.2,157,204.7,154.6,194.7,151.4z
		"/>
	<path d="M139.6,126.3c5.4-3.7,10.2-4.6,15.4-0.6c3.1,2.4,6.8,4.1,9.9,6C160.1,133.8,152.7,132.4,139.6,126.3z"/>
	<path d="M289.2,372c-2.7,4.1-14.3,7.6-17.9,5.4c-0.8-0.5-1.2-3.3-0.6-4C273.7,370.1,284.5,369.4,289.2,372z"/>
	<path d="M144.5,332.9c-1.8-1.1-3.6-2.3-5.5-3.4c1.6-1.4,3.1-3.4,4.9-3.9c3.3-0.9,6.8-0.9,10.2-1c0.9,0,2.6,1.3,2.6,1.8
		c-0.1,1.1-1,2.6-1.9,3C151.7,330.7,148.4,331.6,144.5,332.9z"/>
	<path d="M166.5,117.9c2.6-0.7,4.8-1.8,7-1.6c3.5,0.3,7.7,0.2,9.4,4.5c0.3,0.8-0.4,2.8-0.9,2.9c-2.4,0.4-5.1,0.9-7.2,0.1
		C172.1,122.8,170,120.5,166.5,117.9z"/>
	<path d="M286.3,380.9c-3.3,4.2-12.5,6.8-16.3,4.9c-2.5-1.2-2-3,0-4C275.1,379.3,280.3,378.8,286.3,380.9z"/>
	<path d="M170.5,104.7c0.6-0.3,1.5-0.5,1.8-1c1-1.5,1.7-4.5,2.6-4.5c4.1-0.2,8.2,0.5,12.3,1.5C182.6,105.2,176.9,105.8,170.5,104.7z
		"/>
	<path d="M366.3,284.3c-5,4.5-12.6,5.7-18,3.2C351.6,283.8,360.4,282.1,366.3,284.3z"/>
	<path d="M398.2,227.1c-2-1-3.9-1.9-6.2-3c4.4-3.1,12.6-2.2,17.6,2.9c-3.9,0-7.7,0-11.6,0C398.1,227,398.2,227.1,398.2,227.1z"/>
	<path d="M141.2,108.8c3-6.6,9.4-4.8,14.6-6.6c0,1.1,0.4,2.3-0.1,2.7C152.8,107.8,144.7,110,141.2,108.8z"/>
	<path d="M129.4,322.7c3.2-3.9,9.1-4.8,13.2-2C139,325.3,133.4,326.2,129.4,322.7z"/>
	<path d="M461.3,280.2c2.7-4.4,8.5-6.1,13.4-3.9C471.6,281,466.8,282.4,461.3,280.2z"/>
	<path d="M362.5,184.9c-4.7-0.2-8.3,0.4-9,5.8c-2.7-2.4-4.4-4.7-2.3-7.4C354,179.8,357.9,180.3,362.5,184.9z"/>
	<path d="M353.1,281.5c-3.8,3.8-10.2,5-15,2.7C341.7,280.6,348.8,279.4,353.1,281.5z"/>
	<path d="M265.1,392.7c2.4-3.9,8-4.9,12.5-2.2C274.2,394.1,269.5,394.9,265.1,392.7z"/>
	<path d="M469.1,282.2c4.1-1.1,8.1-2.1,12.2-3.2C478.5,284.8,473.9,286.1,469.1,282.2z"/>
	<path d="M130.9,316c-4.3,4.1-7.7,4.7-11.7,2C121.8,314.5,125.7,313.7,130.9,316z"/>
	<path d="M426.1,208.5c4.6,0.8,9.2,1.5,13.8,2.3c-0.1,0.9-0.3,1.8-0.4,2.7c-4.6-0.6-9.3-1.2-13.9-1.8
		C425.7,210.6,425.9,209.5,426.1,208.5z"/>
	<path d="M270.1,170.4c-1.3-1.3-2.7-2.5-4-3.8c2.7-5.3,3.9-5.7,10.1-2.7c-2.1,1.7-7.2,0.9-4.6,6.3
		C271.1,170.2,270.6,170.3,270.1,170.4z"/>
	<path d="M270.7,398.4c-3.4,2-6.9,3.4-10.9,1.6c-0.1-0.7-0.2-1.4-0.3-2.1c3.6-0.6,7.3-1.2,10.9-1.8
		C270.5,396.9,270.6,397.6,270.7,398.4z"/>
	<path d="M186.3,91.2c-6.5,1.4-11.7,2.6-16.9,3.8c-0.1-0.4-0.2-0.9-0.2-1.3C174.1,90.9,179.3,88.8,186.3,91.2z"/>
	<path d="M187.1,95.2c5.1-1.1,10.3-2.2,15.4-3.2c0.1,0.9,0.3,1.8,0.4,2.6c-5.2,0.7-10.4,1.5-15.6,2.2
		C187.2,96.3,187.2,95.8,187.1,95.2z"/>
	<path d="M326.3,280.9c3.6-0.7,7.3-1.5,11.9-2.4C334.9,282.9,331.2,283.7,326.3,280.9z"/>
	<path d="M195.4,143.7c-2,1.2-4,2.4-6.1,3.5c0.9,1.4,1.9,2.8,2.8,4.2c-0.5-1.7-1-3.4-1.5-5.2c2.3-0.6,4.7-1.1,7-1.7
		C197,144.2,196.2,144,195.4,143.7z"/>
	<path d="M265.7,144.2c-4.1,1.8-7.2,7.7-13.9,2.7C257,145.9,261.3,145.1,265.7,144.2C265.7,144.2,265.7,144.2,265.7,144.2z"/>
	<path d="M475.2,286.5c2.9-0.7,5.8-1.4,8.7-2.1c0.2,0.7,0.4,1.4,0.6,2.2c-2.8,0.8-5.6,1.7-8.5,2.5
		C475.7,288.3,475.5,287.4,475.2,286.5z"/>
	<path d="M219.7,91.9c-4,0.2-8,0.4-11.9,0.6c0-0.4-0.1-0.8-0.1-1.2c4-0.5,8-0.9,12-1.4C219.7,90.6,219.7,91.3,219.7,91.9z"/>
</g>
</svg>
