<?xml version="1.0" encoding="utf-8"?>
<!-- Generator: Adobe Illustrator 17.1.0, SVG Export Plug-In . SVG Version: 6.00 Build 0)  -->
<!DOCTYPE svg PUBLIC "-//W3C//DTD SVG 1.1//EN" "http://www.w3.org/Graphics/SVG/1.1/DTD/svg11.dtd">
<svg version="1.1"
	 id="svg1931" xmlns:rdf="http://www.w3.org/1999/02/22-rdf-syntax-ns#" xmlns:dc="http://purl.org/dc/elements/1.1/" xmlns:cc="http://web.resource.org/cc/"
	 xmlns="http://www.w3.org/2000/svg" xmlns:xlink="http://www.w3.org/1999/xlink" x="0px" y="0px" viewBox="0 0 500 500"
	 enable-background="new 0 0 500 500" xml:space="preserve">
<g id="g1935" transform="matrix(2.1362 0 0 1.8263 -281.14 -175.72)" opacity="0.1">
	<polygon id="polygon1945" points="272.3,315.5 202,274.3 202,315.5 131.6,274.3 131.6,370 365.7,370 362.8,196.4 345,196.4 
		343.1,315.5 272.3,274.3 272.3,274.3 	"/>
	<path id="path1947" d="M199.3,169.2c8.2,10.1,20.4,16.1,33.5,16.1c7.6,0,15-2.2,21.6-6.1l9.7,9.9c-24.4,16.9-57.7,11.8-75.8-12
		L199.3,169.2L199.3,169.2z"/>
	<path id="path1949" d="M340.8,184.3l13.4-4.9c-10.2-15.5-27.5-25-46.3-25c-13.9,0-27.2,5.3-37.4,14.6l9.7,9.3
		C298.1,162.4,326.1,165.2,340.8,184.3z"/>
</g>
</svg>
