<?xml version="1.0" encoding="utf-8"?>
<!-- Generator: Adobe Illustrator 17.1.0, SVG Export Plug-In . SVG Version: 6.00 Build 0)  -->
<!DOCTYPE svg PUBLIC "-//W3C//DTD SVG 1.1//EN" "http://www.w3.org/Graphics/SVG/1.1/DTD/svg11.dtd">
<svg version="1.1" id="Layer_1" xmlns="http://www.w3.org/2000/svg" xmlns:xlink="http://www.w3.org/1999/xlink" x="0px" y="0px"
	 viewBox="0 43 500 457" enable-background="new 0 43 500 457" xml:space="preserve">
<g opacity="0.1">
	<path d="M222.8,210.1c-2.9,0-4.4,1.6-4.8,0.4c-0.9-2.6,1.6-5.2,2.9-5.5c15.8-3.8,20.9-19,30.1-29.2c15.4-17,30.1-34.6,47.6-49.5
		c8.6-7.3,15.7-16.3,25.4-22.4c12.1-7.6,24.3-13.7,39.1-14.4c8.9-0.3,17.4-2,26.4-0.1c6.2,1.3,6,5.1,4.6,9
		c-1.7,4.8-5.5,8.4-10.3,10.3c-3,1.3-4.8,0-3.9-3.5c0.7-2.9,3.9-7.1,1.7-8.3c-4.1-2.2-9.4-1.3-14.2-0.3c-2,0.4-3.8,1.9-5.7,3
		c2.5,2,5.8-0.3,8.6,2.3c-8,9.7-16.1,19.5-24.1,29.2c-16.1,19.5-32.2,38.9-48.5,58.2c-8.4,10.2-17,20.3-25.7,30.4
		c-2.3,2.6-4.8,4.9-1.9,8.6c1.3,1.6,2.2,3.2-0.7,4.5c-2.5,1.2-4.8,2.2-6.4-0.4c-3.8-6.8-10.5-10.5-15.8-15.5
		c-7.3-7-12.3-6.2-18.9,1.2c-13.9,16.3-28.3,32.2-45.3,45.2c-10.5,8-23.4,8.7-36.2,6c-1.5-0.3-4.4,1.2-4.2-2
		c0.1-3.3,2.9-3.2,5.4-3.2c7.7-0.1,15.2,0.7,22.7-2.6c10.6-4.8,19.2-10.9,26.7-20.5C204.9,230.8,211.2,219.1,222.8,210.1z
		 M258.7,182.7c-5.8,6.5-11.6,13.2-17.4,19.8c-1.2,1.3-2.8,2.8-1.5,4.4c1,1.5,3.8,1.3,4.6,0.4C250.7,200,257.4,192.7,258.7,182.7
		c8.1-2,9.4-9.7,12.6-16.1C267.1,171.9,262.9,177.3,258.7,182.7z"/>
	<path d="M299.5,401.5c0.3,3.5-1.5,7.4,3.9,8.1c1.6,0.3,2.6,1.9,2.6,3.9c0,14.7,1.5,29.5-2,43.9c-5.2,21.6-19.5,34.6-41.2,39.8
		c-21.2,5.2-49.5-4.9-63-24.4c-2.3-3.3-5.5-5.8-7.7-9.4c-5.1-8.4-7.1-17.1-4.9-27.7c1.6,3,3,5.2,3.9,7.7
		c6.2,19.8,21.2,31.4,38.8,39.2c7.3,3.2,17.4,2.8,24.5-4.2c9.9-9.6,15.5-21.1,15.7-35.3c0.3-23.2-3.8-45.3-16-66.1
		c2.8-0.3,5.4-0.4,8.9-0.7c-11.2-18.2-23.8-34.9-44.4-39.6c-20.6-4.6-41,5.2-46.2,30.4c-1.9,9.3-5.4,18.4-4.1,28.2
		c0.9,6,1.5,11.9,1.3,17.9c0,2.3-0.3,5.1-2.9,5.1c-3.5,0.1-2-3.2-2.2-4.9c-1.2-10.2-3-20.5-2.9-30.6c0.4-29.3,8.3-48.9,39.1-59.5
		c8.3-2.8,16.4,0.4,23.8,2.6c8.4,2.5,16.6,6.8,23.5,13.2c15.8,14.2,26.7,32.5,41,48.1c6.8,7.6,16.1,10.5,26,12.2
		c1.9,0.3,4.8-1.2,5.4,2c0.3,2,0.6,4.6-0.4,6.2c-1.5,2.5-3.9,0.3-5.8-0.4C309.5,405.5,304.9,403.6,299.5,401.5z"/>
	<path d="M133.3,389.1c-1.6,9.3,1.7,19.3,1.3,29.3c-0.1,2,0.6,5.2-2.9,4.4c-2.3-0.6-6.4,0.1-6.4-4.2c-0.6-26.4-6-53.3,3.3-78.9
		c6.4-17.6,15.5-33.7,32.7-44.9c15.5-10.2,30.9-19.2,49.4-22.7c12.6-2.3,25.1-3.5,38.2-2.9c19,1,37.5,2.8,55.5,9.1
		c0.3,0.1,0.4,0,0.7,0.1c3.9,1.3,9,3.2,8.4,7.3c-0.6,4.5-6.1,3.8-9.9,3.5c-15-1.3-29.9-3.3-44.9-3.9c-14.7-0.6-29.3-1.6-43.9,1.5
		c-7.3,1.6-14.4,2.9-21.8,3.9c-4.2,0.6-6.5,3.6-9.9,5.4c-26.1,14.1-39.5,37.3-47.3,64.9C133.5,370.2,132.9,379,133.3,389.1z"/>
	<path d="M320.8,383.1c-16.3-0.9-29-9-37.8-21.9c-8.6-12.6-14.5-27-17.3-42.4c-1.5-8.1,0-10,8.1-8.9c2.9,0.4,5.7,0.7,8.6,1.5
		c6,1.5,10.2,4.4,9.7,11.3c-0.4,5.1,0.6,9.9,2.8,14.7c2.2,5.1,6.1,8,10.7,8.4c10,0.7,20.5,1.7,29.8-3.2c3.5-1.9,3.9-0.4,5.8,1.9
		c5.1,6.8,5.8,14.7,6,22.7c0.3,7.1-10.5,15-20.6,15.8C324.7,383.2,322.9,383.1,320.8,383.1z"/>
	<path d="M408.8,430.4c-13.1-0.1-23.5-6-31.7-15.5c-2.9-3.3-4.5-3.8-8.3-2.3c-8.6,3.5-17.9,4.2-26.9,3c-13.8-1.7-15.5-6.2-14.8-21.2
		c0.1-1.9-1.2-5.5,2-5.1c2.8,0.4,6.8,1,7.4,5.5c1,7.7,4.8,11.2,12.6,11.5c10.2,0.3,19.9-2.3,29.2-6.1c26.7-10.7,53.4-21.6,79.1-34.6
		c8.1-4.1,16-8.6,24-12.6c4.6-2.3,6.5-4.8,4.2-10.3c-1-2.5-4.5-7-0.1-8.7c5.4-2,10.5,1.3,13.8,5.5c2.8,3.5,1.6,7.4-2.2,10
		c-6,3.9-12.1,7.7-18.2,11.3c-3.8,2.2-7.6,4.2-11.5,5.7c-8.1,3-13.8,7.7-13.2,17.1c0.6,9.3-4.8,16.4-8.9,23.8
		C438.2,421.6,423.4,430.3,408.8,430.4z M385,408.2c12.8,11.2,26.7,12.3,40.2,6.5c16-7,22.8-20.5,23.5-38.2
		C427.3,387.2,406.1,397.6,385,408.2z"/>
	<path d="M139.2,229.5c7.3-9.4,15.4-18,24.7-25.1c5.2-3.9,4.8-6.4,1.7-10.5c-1.5-1.9-6-3.8-1.5-6.5c4.1-2.6,4.4,1.9,5.8,3.8
		c2.2,2.8,3.2,4.1,6.8,0.3c20.9-21.9,45.2-40.2,66.7-61.6c12.6-12.5,28-22.4,41-34.7C296.7,83.4,311,73.9,324,63.3
		c21.6-17.4,49.5-11,64.2,10.9c-3.5,0.7-5.7-0.6-7.8-3.3c-7.3-9.1-17-13.4-28.8-13.7c-8.7-0.3-14.8,4.9-21.1,9.6
		c-20.9,15.7-40.4,33-59.8,50.4c-16.6,15-32.7,30.5-49.2,45.5c-19.6,17.7-39.1,35.6-57.4,54.6C157.2,224.4,148.2,226.5,139.2,229.5z
		"/>
	<path d="M197,485.3c-19.2,0.6-35.7-0.9-52.4-2.6c-9-0.9-18.3-0.9-27.3-1.3c-13.2-0.6-26.4-1.7-39.6-2.2c-8.9-0.3-17.7-1-26.6-1.2
		c-2.8,0-9.1-10.3-8-12.5c0.7-1.3,2-1.2,3.2-1.2c14.7-0.3,29.3,1,43.9,2.5c9.3,0.9,18.7,0.9,28,1.5c12.5,0.7,25,1.9,37.5,2.2
		c8.9,0.3,17.7,0.7,26.6,1.3C189.4,472.4,190.6,480.1,197,485.3z"/>
	<path d="M247.5,432.5c0.4-18.9-4.9-33.3-16.8-44.3c-9.1-8.6-18.9-10.7-26.9-1.7c-1.5,1.6-2.8,2.3-4.9,0.4c-2-1.7-2-3.3-0.9-5.5
		c4.9-9.1,11.5-11.3,21.1-6.8c25.8,12.2,39.6,32.8,41.7,61c0.9,11-5.4,19.8-13.8,26.3c-13.2,10.2-23.2,9-34.7-3.6
		c-3.9-4.4-8.3-8.7-9.9-14.7c-0.3-1-2.2-2.6,0-3.5c1.5-0.6,2.9-0.1,3.8,1.3c1.9,2.5,4.2,4.8,5.4,7.6c2.8,6.8,8.6,9.4,14.5,11.9
		c5.2,2.3,14.7-2.6,16.8-8.7C245.5,445,248.8,437.8,247.5,432.5z"/>
	<path d="M378.5,271.7c-5.4,3-11.3,3.2-17.3,3.3c-27.9,1-55.3-3.3-82.9-7.4c-2.5-0.4-3.3-1.2-3.3-3.6c0-2.9,2-3,3.9-2.9
		c9,1.2,17.9,2.8,27,3.5c17.4,1.5,35,3.3,52.6,2c5.5-0.4,10.6-4.1,15.2-7.6c0.9-0.6,3-1.5,0.6-3c-0.9-0.6-3.6,0.6-2.5-2
		c1-2.2,3.3-2,5.1-1.5c7.7,2.2,15.4,5.1,23.2,6.8c10.9,2.5,16,11.8,23.1,18.6c1.9,1.9,1.7,4.1-2.3,4.2c-6.2,0.1-11.5-0.3-16.1-5.8
		c-5.5-6.5-11.5-12.9-19.9-15.2c1.5,5.5-4.8,6.7-6.8,10.5L378.5,271.7z"/>
	<path d="M92.1,404.2c-21.2,0.6-42.4,2.2-63.6,1.5c-4.8-0.1-9.3-7.4-7-11.3c0.9-1.3,2.6-0.9,3.9-0.9c28.5,0,57.1,0.1,85.5-0.1
		c4.8,0,4.6,2.6,4.8,6c0.1,3.8-1.2,5.2-4.9,5.1C104.6,404,98.3,404.2,92.1,404.2z"/>
	<path d="M68.9,433.2c-12.8,0-25.7-0.1-38.5,0.1c-4.1,0-5.5-1.3-5.4-5.4c0-3.8,0.7-5.5,5.1-5.7c25.3-0.3,50.5-0.9,76-1.5
		c4.4-0.1,7,0.1,7.1,6c0.1,6-2.5,6.5-7.3,6.5C93.6,433.1,81.2,433.2,68.9,433.2z"/>
	<path d="M123.5,234.8c-5.2,1.6-9.4,1.3-12.5-1.6c-9.9-9.3-19.5-19-25-31.8c-3.8-8.6-1.3-13.9,7.7-17.3c12.1-4.5,24.3-5.8,37.2-6.1
		c16.3-0.3,32.7-1.3,49.1-1.2c2.6,0,5.4-0.6,7.8,0.7c-1,3.8-4.1,2.8-6.5,2.8c-11,0.1-22.2,0-33.4,0c-12.5,0-24.8,1.2-36.9,4.4
		c-2.5,0.7-4.9,1.7-7.3,3c-5.8,3.5-7.1,9.4-3.9,15.4C106.2,214.6,112.6,226,123.5,234.8z"/>
	<path d="M49.6,250.2c-1.2,0-2.5,0.3-3.6,0c-2.5-0.7-7,1.9-7.1-2.2c-0.3-4.8,4.4-2,6.8-2.5c5.4-0.7,11,0.1,16.4-1.3
		c10.7-3,15.5-10.7,12.1-21.1c-6-17.7-29.5-29.8-45.9-23.8c-1.3,0.4-2.6,1-4.1,1.3c-2,0.4-3-0.6-3.8-2.5c-1.3-3.2,1.5-2.2,2.6-2.6
		c17.4-6.8,38.9-1.6,49.7,14.2c5.1,7.4,12.2,13.4,15.4,22.1c2.5,6.5-0.3,11.9-7,13.5c-7.6,1.9-15.2,3.3-23.1,4.5
		C55.4,250.7,52.5,250.2,49.6,250.2L49.6,250.2z"/>
	<path d="M349.7,386.6c13.1-5.4,26.1-10.9,39.2-16.1c28.5-11.3,56.9-22.7,85.4-33.8c2-0.9,4.4-3.2,5.8,0.6c1,2.8-0.6,4.5-3.2,5.5
		c-37.6,14.7-75.1,29.3-112.5,44.1C359.6,388.8,355,387.9,349.7,386.6z"/>
	<path d="M10.2,274.8c16.8-1.6,34-3.2,51-4.9c13.2-1.3,26.6-2.9,39.8-4.4c1.6-0.1,3.3-0.1,5.1,0.1c3,0.4,3.6,3,3.8,5.4
		c0.1,3-2.5,2.3-4.2,2.5c-25.7,2.5-51.3,4.8-77,7.4c-3.5,0.3-7,1.3-10.6,1.5C12.4,282.8,9.3,281.2,10.2,274.8z"/>
	<path d="M186.8,171.4c-8.7,1.5-16-2.3-23.5-2.6c-19-1-38-4.1-57.2-1.5c-14.2,1.9-28.6,2-43,3.2c-6.8,0.6-13.7,2-20.5,2.8
		c-2,0.1-5.5,1.5-5.7-2.3c0-3.9,3.5-2.2,5.5-2.5c12.1-1.7,24.1-2.9,36-5.1c6.8-1.3,13.8-0.7,20.6-1.9c25.6-4.1,51-1.2,76.1,4.4
		C179.1,166.4,183.2,167.6,186.8,171.4z"/>
	<path d="M275.5,233.1c-0.9-0.7-1.7-1.2-2.3-1.7c-1.3-1.3,0-2.2,0.7-2.9c9.3-10.7,18.6-21.3,27.7-32.1
		c13.2-15.5,26.3-31.1,39.5-46.6c9.9-11.5,19.8-22.8,29.8-34.1c1.3-1.5,2.5-5.2,5.5-2.3c2.6,2.6,0.1,4.6-1.6,6.7
		c-17.1,19.5-34.1,38.9-51.1,58.5c-14.5,16.8-29,33.8-43.6,50.7C278.7,230.5,277.1,231.6,275.5,233.1z"/>
	<path d="M350.3,312.7c-2.8,0.3-3.2-2-2.6-4.2c0.4-1.7-3.2-4.2,1.6-5.4c24.7-6,49.2-12.3,73.8-18.6c3-0.7,4.9,0.4,6.1,3.5
		c1.2,3.3-0.6,4.1-3.3,4.8c-24.5,6.5-48.9,13.2-73.5,19.8C351.8,312.7,351.3,312.7,350.3,312.7z"/>
	<path d="M473,314.4c0,2.5-0.3,4.8,0,7.3c0.7,4.6-1.9,6.5-5.8,7.6c-0.4,0.1-1,0.1-1.5,0.3c-13.5,4.4-13.5,4.4-14.7-9.9
		c-0.3-4.2-1-8.6-1.5-12.8c-0.3-4.2,0.7-6.7,5.8-4.8c3.9,1.5,8.1,1.2,11.8-0.6c5.4-2.6,5.7,0.3,5.5,4.2
		C473,308.7,473,311.5,473,314.4z"/>
	<path d="M221.3,443.4c10.9-0.9,10.6-1.7,11.8-12.1c1.5-13.4-6.1-22.1-13.5-31.1c-4.4-5.2-10.7-6.7-17.9-3.3c2.8-6.7,7.4-9,13.5-7.4
		c15.7,4.4,23.1,17.3,25,32.8c0.6,4.9,0.3,10.2,0,15.2c-0.3,5.8-4.6,8.9-9.1,10.9C227.2,450.6,224.4,447.3,221.3,443.4z"/>
	<path d="M204.4,253.7c7-8.7,12.5-13.7,22.8-13.2c13.1,0.6,26.1-1.5,39.2-2.6c5.1-0.4,7,1.5,6.4,6.5c-0.4,3.3,0,6.7-0.1,10.2
		c0,1.6-0.4,2.9-2.3,2.9c-1.9,0-2.2-1.2-2.6-2.6c-3.5-9.9-3.5-9.4-13.4-7.8C238.3,249.5,222.2,251.2,204.4,253.7z"/>
	<path d="M359.7,361.9c0,2.3,0,3.8,0,5.2c0,2.8,0.1,5.2-3.9,5.2c-4.1,0-4.2-2.3-4.1-5.1c0.6-10.2-2-19.8-4.1-29.6
		c-2.9-13.5-10.3-24.4-19.2-34.4c-2-2.3-6.7-5.1-4.4-7.7c2.5-2.8,6.4,0.7,9.3,2.9c14.8,11.6,18.9,28.6,23.2,45.5
		C358.4,350,360.9,356.1,359.7,361.9z"/>
	<path d="M427.4,321.8c0-6.5,0-13.1,0-19.6c0-1.6-0.7-3.6,1.5-4.4c1.7-0.6,2.5,1.2,3.6,2c5.2,4.2,6.7,10.5,7.1,16.6
		c0.6,8.1-0.1,16.4,0.3,24.7c0.3,5.4-2.9,4.9-6.4,5.1c-4.1,0.1-6.4-0.6-6.1-5.5C427.7,334.4,427.4,328.2,427.4,321.8z"/>
	<path d="M330.4,242.2c20.2,1.2,39.5-0.3,59.1,1c13.8,1,27,2.3,39.5,8c2.8,1.2,8.3,1.6,7,5.4c-1.7,5.1-5.8,0.9-9,0
		c-18.9-4.8-37.5-11-57.4-10.7c-10.6,0.1-21.2,0.1-31.9,0C335.3,245.9,332.3,247,330.4,242.2z"/>
	<path d="M30.1,256.9c8.9-0.1,19.8,0.4,30.5-1.3c2.2-0.3,6.2-1.7,6.7,1.7c0.4,3.6-3.5,2.8-6,3.3c-17.9,4.5-36,4.4-54.3,4.2
		c-2.9,0-6.7,0.6-7-3.5c-0.4-5.1,3.8-4.4,7.1-4.4C14.1,256.9,21.2,256.9,30.1,256.9z"/>
	<path d="M329.7,325.7c4.1,5.4,0.6,13.8-6.5,16c-8.9,2.8-20.2-2.2-23.1-11c-3-8.9-3.9-18,0.9-26.7c3-5.7,16.6-6.7,20.3-1.3
		c0.7,1,0.6,1.7,0,2.6c-1,1.6-2.9,2.5-4.4,1.6c-5.2-3.2-10-3.9-13.4,2.2c-3.3,6.2,0.1,18.4,6,22.4
		C320.2,338.2,326.1,336.8,329.7,325.7z"/>
	<path d="M186.8,364.1c0,23.5,0,45.7,0,68.3C176.9,421.7,176.5,379.2,186.8,364.1z"/>
	<path d="M355.5,320.1c12.3-2.9,24.7-6,37.2-8.9c2.5-0.6,5.5-2.3,6.1,2c0.4,3.2,0.1,6-4.2,6.8c-10.9,2.2-21.6,4.6-32.5,7.1
		C355.8,328.5,356,324,355.5,320.1z"/>
	<path d="M130.3,441.6c1.9-6.1,5.4-8.4,11-7.6c8.3,1.2,15.8,0.1,20.5-8.4c6.4,11.2,1.9,19.2-10.2,19.5
		C144.4,445.1,137.7,442.2,130.3,441.6z"/>
	<path d="M128.3,243.4c0.3,2.3,0.9,3.6,0.4,4.5c-6.2,14.2-1.5,27.7,2.8,41.4c0.6,1.9,2.9,4.1,0,5.5c-2.9,1.5-4.1-1.3-5.2-3.5
		c-5.2-9.3-7.6-19.8-8.4-29.8C117.5,255.4,123.9,249.9,128.3,243.4z"/>
	<path d="M378.3,271.9c8.1-0.7,12.3,5.2,17.1,10.2c1,1,1.2,3-0.1,3.9c-1.9,1.3-4.1,1.2-6-0.6c-1.7-1.6-2.2-6-5.7-4.1
		c-2.9,1.6-6.2,3.8-6.5,8c-0.3,5.1-4.1,5.2-7.3,4.2c-3.5-1-1.5-3.9-1.2-6.5c0.7-6.8,5.7-10.7,9.7-15.4
		C378.5,271.7,378.3,271.9,378.3,271.9z"/>
	<path d="M285.8,251.7c23.4-4.6,46.8,1,70.3-0.7c-0.9,3.6-2.5,5.1-5.2,5.2c-14.7,0.7-29.3-0.9-43.9-2.3
		C300.1,253.1,292.9,254.3,285.8,251.7z"/>
	<path d="M358.4,337.5c10-2.5,19.9-4.9,29.8-7.3c2.5-0.6,5.5-2.3,6.2,1.7c0.4,2.9,1.6,6.5-4.1,7.1c-7.6,0.6-15,2.8-22.4,4.1
		C363.4,343.7,359,343.7,358.4,337.5z"/>
	<path d="M445.9,269.1c1.9,7.3,5.7,13.1,10.5,18.6c2.9,3.2,4.9,4.2,7.4,0.1c0.9-1.6,1.9-1.9,3.5-1.6c1.6,0.3,1.6,1.7,1.6,2.8
		c-0.3,2.9,1.5,6.7-2,8.6c-2.9,1.6-6.2,0.9-8.9-1c-6.4-5.1-12.5-10.6-15.8-18.3C440.1,274.3,444.7,272.4,445.9,269.1z"/>
	<path d="M375.9,356.2c-3.3,0-6.8,0-10.2,0c-2.2,0-3.6-0.4-3.6-3.2c0-2.6,1.3-2.9,3.6-3.3c6.5-1.2,12.9-2.9,19.5-3.9
		c2.5-0.4,6.2-2,6.5,2.8c0.3,4.2,0.1,8-5.7,7.7C382.7,356.1,379.2,356.2,375.9,356.2z"/>
	<path d="M404,318.2c0-4.9-0.1-8.1,0-11.2c0-1.2-2-2.6,0.4-3.5c1.9-0.6,3.3,0.4,4.2,2c0.4,0.7,0.4,1.9,0.4,2.8
		c0.6,13.2,1,26.3,1.5,39.5c0,2,1.3,5.5-2.8,5.2c-3.3-0.3-2.3-3.3-2.2-5.1C406.7,337.4,403.5,326.9,404,318.2z"/>
	<path d="M216.7,354.8c-5.5,0-11,0.3-16.4,0c-6.4-0.4-8.4,5.4-12.6,8c-3.5-9.1-2.6-10.3,6.7-13.1c8-2.3,15.7-5.7,21.9,2.9
		C216.4,352.9,216.4,353.5,216.7,354.8z"/>
	<path d="M207.4,404.4c6.2-3.9,18,2.3,18.6,9.9c0.4,6,0.1,12.1,0,18c0,1.6,0.1,3.6-2.5,3.3c-2.9-0.3-1.5-1.9-1.2-3.5
		C225.4,420.3,218.2,407.9,207.4,404.4z"/>
	<path d="M375.4,369.3c-2.9,0-5.8,0-8.7,0c-2,0-3.2-0.7-3.2-2.9c0-1.9,0.3-3.6,2.6-3.5c6.1,0.7,11.9-1.9,17.9-1.6
		c2,0.1,4.6-0.6,4.8,2.8c0.1,3.2-1.3,5.1-4.6,5.1C381.2,369.3,378.3,369.3,375.4,369.3z"/>
	<path d="M110,191.3c13.8-7.8,28.6-7.4,43.4-7c1.5,0,3.9-0.6,3.9,1.7c0,2.3-2.5,1.9-3.9,1.7c-13.2-1-26.3,0.4-38.6,5.4
		C112.7,194,111,193.6,110,191.3z"/>
	<path d="M307,68c8.4-6.5,16.4-12.8,24.4-19c2-1.6,4.1-1,6.2-1c1.2,0,1.6,0.9,1.7,1.9c0.1,1.3,0,2.8-1.6,2.8
		c-9,0-12.2,8.4-18.3,12.6C315.5,67.7,312.3,69.7,307,68z"/>
	<path d="M287.4,259.8c1.5-2.3,3.5-3.2,6-2.9c11.6,1,23.2,2,34.9,2.9c1,0.1,2,0.3,2.2,1.5c0.1,2.2-1.7,2-3,2
		c-8.3-0.4-16.8-0.3-24.8-1.9C297.3,260.4,292.4,261.5,287.4,259.8z"/>
	<path d="M462.6,281.7c-0.1,1.3-0.9,1.9-1.9,1.9c-2.3,0.1-4.9,0.7-6.4-1.9c-2.5-4.1-4.2-8.4-4.9-13.1c-0.1-1-0.1-2.6,1.6-2.6
		c0.7,0,2.2,0.9,2.2,1.3c0,6.2,5.2,8.9,8.6,12.8C462,280.6,462.3,281.2,462.6,281.7z"/>
	<path d="M351.9,286.5c0-0.4,0-1.9-0.3-3.3c-0.3-1.5-1-2.9,1.3-2.9c1.6,0,3.5-0.4,3.8,2c0.4,2.8,1,5.5,1.6,8.3
		c0.6,3.2-1,5.4-3.9,5.7c-4.2,0.3-2-3.3-2.5-5.2C351.6,289.9,351.9,288.6,351.9,286.5z"/>
	<path d="M310.1,317.3c-0.9,7.1,3.6,7.6,6.8,9.3c1.7,1,3.9,1.7,3,3.9c-0.9,2-3.6,1.5-5.2,0.9C309.4,329.1,306,325.6,310.1,317.3z"/>
	<path d="M458.5,263.4c10.2,4.2,13.8,12.2,8.9,18.4C465.2,275.2,463.1,268.7,458.5,263.4z"/>
	<path d="M302.1,238c2.9,0,6,0.7,5.2,4.1c-0.9,4.2-6.1,0-8.3,3.3c-0.7,1.2-2-0.9-2.2-2.5C296.6,239.3,298.6,237.9,302.1,238z"/>
	<path d="M316.3,246.9c2.6-3.9,4.1-10.5,10.9-5.5c1.2,0.9,2.5,2.2,1.6,3.6c-0.4,0.7-2.3,1.3-3.2,0.9
		C322.3,244.1,319.5,245.9,316.3,246.9z"/>
</g>
</svg>
